<?xml version="1.0" encoding="UTF-8"?>
<svg version="1.1" xmlns="http://www.w3.org/2000/svg" width="500" height="500">
<path d="M0 0 C165 0 330 0 500 0 C500 165 500 330 500 500 C335 500 170 500 0 500 C0 335 0 170 0 0 Z " fill="#000000" transform="translate(0,0)"/>
<path d="M0 0 C9.0821493 4.84001687 16.22858894 12.3597539 22.4921875 20.390625 C27.38717924 26.61803727 32.8355663 31.10685302 39.4921875 35.328125 C39.01562338 37.12048567 38.53585252 38.91199397 38.0546875 40.703125 C37.78785156 41.70085937 37.52101563 42.69859375 37.24609375 43.7265625 C36.4921875 46.328125 36.4921875 46.328125 35.4921875 48.328125 C36.77281235 50.0356248 38.10986307 51.70186096 39.4921875 53.328125 C40.1521875 53.328125 40.8121875 53.328125 41.4921875 53.328125 C41.2446875 52.35875 40.9971875 51.389375 40.7421875 50.390625 C40.19958663 46.87401624 40.96224516 44.76426323 42.4765625 41.57421875 C42.85006836 40.77556396 43.22357422 39.97690918 43.60839844 39.15405273 C43.90004883 38.55149658 44.19169922 37.94894043 44.4921875 37.328125 C50.6485528 37.22903778 56.804451 37.15655247 62.96142578 37.10839844 C65.05460703 37.08831841 67.14773242 37.0610486 69.24072266 37.02636719 C72.25437219 36.97769066 75.26727823 36.95511988 78.28125 36.9375 C79.21272858 36.91685486 80.14420715 36.89620972 81.10391235 36.87493896 C86.76356722 36.87299689 90.01541764 37.52029776 94.4921875 41.328125 C99.37890912 46.61106729 99.84858956 51.0522455 99.7734375 58.05078125 C99.14285171 65.39885728 97.68937231 73.65733072 93.125 79.59375 C89.73201385 84.08102581 87.97121641 89.07794841 86.0546875 94.328125 C85.66853271 95.37250732 85.28237793 96.41688965 84.88452148 97.49291992 C78.43756563 115.3638762 73.45815394 133.90255437 72.9296875 152.953125 C72.87007715 154.90377844 72.80650411 156.85431629 72.73828125 158.8046875 C72.70238892 160.0743335 72.70238892 160.0743335 72.66577148 161.36962891 C72.4921875 163.328125 72.4921875 163.328125 71.4921875 164.328125 C67.9921875 164.453125 67.9921875 164.453125 64.4921875 164.328125 C63.4921875 163.328125 63.4921875 163.328125 63.39453125 159.73046875 C63.40027478 158.24215245 63.41328859 156.75386204 63.4296875 155.265625 C63.44117652 153.84969347 63.45230268 152.43375897 63.46313477 151.01782227 C63.47751587 149.19142212 63.47751587 149.19142212 63.4921875 147.328125 C60.15930779 162.54589593 60.13837084 177.43023714 60.3046875 192.953125 C60.31977251 195.42447094 60.33345411 197.89582587 60.34570312 200.3671875 C60.3783806 206.35436639 60.42827275 212.34120224 60.4921875 218.328125 C55.58778182 220.98064863 52.98998811 221.95710296 47.4921875 220.328125 C43.27839163 216.45598825 41.76874026 211.63117765 41.30151367 206.05078125 C41.22289565 203.49403084 41.21571685 200.94843906 41.2421875 198.390625 C41.24677979 197.47418213 41.25137207 196.55773926 41.25610352 195.61352539 C41.37996135 186.1765429 41.96367887 176.46264715 44.4921875 167.328125 C43.7703125 167.410625 43.0484375 167.493125 42.3046875 167.578125 C38.62108331 167.25069352 37.10592639 165.86718564 34.4921875 163.328125 C34.4921875 162.668125 34.4921875 162.008125 34.4921875 161.328125 C35.8121875 161.658125 37.1321875 161.988125 38.4921875 162.328125 C36.91209787 155.90240525 36.91209787 155.90240525 32.68359375 151.38671875 C31.96042969 151.03738281 31.23726563 150.68804687 30.4921875 150.328125 C27.5681237 148.57585671 24.89458764 146.7583307 22.4921875 144.328125 C21.8046875 140.828125 21.8046875 140.828125 21.4921875 137.328125 C18.14468509 132.20841543 15.12222197 130.20480316 9.4921875 128.328125 C8.5021875 128.328125 7.5121875 128.328125 6.4921875 128.328125 C6.1621875 129.978125 5.8321875 131.628125 5.4921875 133.328125 C3.8046875 134.140625 3.8046875 134.140625 1.4921875 134.328125 C-1.2578125 131.890625 -1.2578125 131.890625 -3.5078125 129.328125 C-3.1778125 128.338125 -2.8478125 127.348125 -2.5078125 126.328125 C-1.0228125 127.318125 -1.0228125 127.318125 0.4921875 128.328125 C-5.45144927 122.68929012 -11.40145574 120.2408472 -19.6328125 119.953125 C-24.22085129 120.08216359 -27.45979492 121.21611583 -31.5078125 123.328125 C-31.8059549 127.1045182 -31.8059549 127.1045182 -30.5078125 129.328125 C-28.15873375 130.01743844 -28.15873375 130.01743844 -25.4453125 130.453125 C-24.06666016 130.70449219 -24.06666016 130.70449219 -22.66015625 130.9609375 C-21.94988281 131.08210937 -21.23960937 131.20328125 -20.5078125 131.328125 C-20.5078125 131.988125 -20.5078125 132.648125 -20.5078125 133.328125 C-21.27480469 133.37839844 -22.04179687 133.42867187 -22.83203125 133.48046875 C-25.72852575 134.08172103 -25.72852575 134.08172103 -27.08984375 136.83203125 C-27.69892578 138.34603516 -27.69892578 138.34603516 -28.3203125 139.890625 C-28.73925781 140.90253906 -29.15820312 141.91445313 -29.58984375 142.95703125 C-29.89277344 143.73949219 -30.19570312 144.52195312 -30.5078125 145.328125 C-28.92371256 145.21324752 -27.34052287 145.08577992 -25.7578125 144.953125 C-24.87609375 144.88351562 -23.994375 144.81390625 -23.0859375 144.7421875 C-20.51714868 144.32962445 -18.74940235 143.61651543 -16.5078125 142.328125 C-16.5078125 143.318125 -16.5078125 144.308125 -16.5078125 145.328125 C-15.40373047 145.16763672 -15.40373047 145.16763672 -14.27734375 145.00390625 C-6.20764097 144.01251608 -6.20764097 144.01251608 -2.3203125 145.765625 C-1.7221875 146.28125 -1.1240625 146.796875 -0.5078125 147.328125 C-1.3740625 148.318125 -1.3740625 148.318125 -2.2578125 149.328125 C-4.51631728 152.3394647 -5.97945538 155.22904351 -7.48046875 158.65625 C-8.5078125 160.328125 -8.5078125 160.328125 -11.5078125 161.328125 C-13.42400562 161.4037642 -15.3408077 161.46453731 -17.2578125 161.515625 C-22.26279778 161.94479644 -25.50847123 162.60298883 -29.12109375 166.171875 C-31.54946953 169.94782833 -32.48286647 174.16136281 -33.48828125 178.5 C-34.5078125 181.328125 -34.5078125 181.328125 -36.62109375 182.71875 C-37.24371094 182.91984375 -37.86632812 183.1209375 -38.5078125 183.328125 C-40.5078125 181.328125 -40.5078125 181.328125 -40.6328125 177.703125 C-40.5915625 176.589375 -40.5503125 175.475625 -40.5078125 174.328125 C-45.3364327 178.42664455 -47.08221601 182.53867308 -49.1328125 188.453125 C-49.7008475 190.0625575 -50.27611092 191.66946127 -50.859375 193.2734375 C-51.22796631 194.33328857 -51.22796631 194.33328857 -51.60400391 195.41455078 C-52.62437583 197.57491685 -53.63572154 198.84719975 -55.5078125 200.328125 C-58.1328125 200.140625 -58.1328125 200.140625 -60.5078125 199.328125 C-62.28722035 195.76930931 -62.11603481 192.15935712 -61.5078125 188.328125 C-59.82801691 184.46514231 -57.69969084 180.92022046 -55.5078125 177.328125 C-48.68645904 166.09427887 -47.97465263 153.14370852 -48.5078125 140.328125 C-48.85972656 141.58625 -49.21164063 142.844375 -49.57421875 144.140625 C-60.42344728 182.11292487 -60.42344728 182.11292487 -74.0078125 190.515625 C-78.43743381 192.61226159 -81.6509643 192.9650887 -86.5078125 192.328125 C-90.58787958 190.78847704 -93.52237118 189.29900764 -95.5078125 185.328125 C-96.01736011 179.65330026 -94.71771444 175.79643041 -92.0703125 170.890625 C-91.52842285 169.84757202 -91.52842285 169.84757202 -90.97558594 168.78344727 C-88.15065753 163.39531533 -85.15861318 158.10111045 -82.14672852 152.81591797 C-72.4380628 135.70616537 -63.22608 118.0775688 -55.64453125 99.91015625 C-50.95691047 88.68143047 -45.46233167 77.51953467 -33.6328125 72.515625 C-22.58768692 68.88236001 -9.84674295 72.98577421 0.4921875 77.328125 C0.4921875 76.668125 0.4921875 76.008125 0.4921875 75.328125 C-0.4153125 75.039375 -1.3228125 74.750625 -2.2578125 74.453125 C-4.82984158 73.56280724 -7.12128016 72.61318087 -9.5078125 71.328125 C-8.00715987 66.65942794 -4.5820552 65.54959067 -0.5078125 63.328125 C-2.03148437 62.96460938 -2.03148437 62.96460938 -3.5859375 62.59375 C-24.58957049 57.50925279 -24.58957049 57.50925279 -32.5078125 53.328125 C-32.5078125 52.668125 -32.5078125 52.008125 -32.5078125 51.328125 C-26.7578125 52.203125 -26.7578125 52.203125 -24.5078125 53.328125 C-24.6109375 52.1525 -24.7140625 50.976875 -24.8203125 49.765625 C-24.8203125 44.78510654 -22.91729166 41.84007485 -19.5078125 38.328125 C-13.70460532 34.08187585 -7.5266936 33.5787407 -0.5078125 34.328125 C5.40399244 36.12113343 9.06047517 39.28148922 12.4921875 44.328125 C14.5787064 49.12711847 14.81341313 52.89793004 15.4921875 58.328125 C20.7721875 55.358125 26.0521875 52.388125 31.4921875 49.328125 C28.8521875 48.668125 26.2121875 48.008125 23.4921875 47.328125 C17.44998892 44.05639495 13.05419132 38.82984823 8.6171875 33.703125 C3.52932164 28.03322206 -0.80728255 23.89853719 -8.5078125 22.328125 C-9.31605469 22.14378906 -10.12429687 21.95945313 -10.95703125 21.76953125 C-19.80882568 20.23775059 -29.55008931 20.74790843 -37.3203125 25.515625 C-40.5078125 27.328125 -40.5078125 27.328125 -42.9453125 27.078125 C-43.4609375 26.830625 -43.9765625 26.583125 -44.5078125 26.328125 C-45.92263247 21.79237862 -45.04907999 19.53641279 -42.8828125 15.390625 C-33.91397785 -1.3950839 -18.1337839 -7.64094158 0 0 Z " fill="#B5B4B4" transform="translate(243.5078125,156.671875)"/>
<path d="M0 0 C1.00812744 0.51651123 1.00812744 0.51651123 2.03662109 1.04345703 C17.73568467 9.15762079 32.18719917 19.1584481 38.3828125 36.5390625 C40.35569307 44.40561161 38.65781317 52.21419886 37 60 C36.505 59.731875 36.01 59.46375 35.5 59.1875 C28.8337069 56.02101078 23.69497705 54.55939565 16.37109375 54.7421875 C15.1810952 54.75211227 15.1810952 54.75211227 13.96705627 54.76223755 C11.45678958 54.78542915 8.94744456 54.82907901 6.4375 54.875 C3.92409847 54.91026056 1.4107539 54.94106639 -1.10276794 54.96633911 C-2.6588932 54.98309089 -4.21496902 55.00603841 -5.77088928 55.03634644 C-16.22297017 55.17911691 -23.69571491 52.95357754 -31.45703125 45.62402344 C-35.50022705 41.50726545 -39.22683795 37.11774414 -42.9296875 32.6953125 C-50.54720733 23.67364154 -59.26126587 17.39750639 -71 15 C-80.98606365 14.17048673 -90.16686893 15.63953111 -98.11328125 22.0546875 C-101.80572898 25.86180752 -104.42436268 30.39169755 -107 35 C-107.39058594 35.67933594 -107.78117187 36.35867187 -108.18359375 37.05859375 C-109.13649561 39.32458524 -109.23421072 40.98731041 -109.1875 43.4375 C-109.17783203 44.54931641 -109.17783203 44.54931641 -109.16796875 45.68359375 C-109.06906787 48.05709262 -109.06906787 48.05709262 -108.328125 50.50390625 C-107.89980891 53.76216797 -108.72900327 54.81638573 -110.5625 57.5 C-117.67948874 68.61307059 -122.4882723 80.93839913 -125.75 93.6875 C-127.56961612 100.65791922 -129.6596313 107.52022248 -131.875 114.375 C-132.19049805 115.38522217 -132.50599609 116.39544434 -132.83105469 117.4362793 C-135.39935023 125.25000292 -138.68210593 133.52876074 -146 138 C-148.15063477 138.38818359 -148.15063477 138.38818359 -150.44140625 138.3984375 C-151.68760742 138.40423828 -151.68760742 138.40423828 -152.95898438 138.41015625 C-154.24772461 138.39275391 -154.24772461 138.39275391 -155.5625 138.375 C-156.42552734 138.38660156 -157.28855469 138.39820313 -158.17773438 138.41015625 C-159.00724609 138.40628906 -159.83675781 138.40242187 -160.69140625 138.3984375 C-161.82364624 138.39336182 -161.82364624 138.39336182 -162.97875977 138.38818359 C-165.57489079 137.88959097 -166.4724312 137.14120237 -168 135 C-168 133.68 -168 132.36 -168 131 C-165.734375 129.2890625 -165.734375 129.2890625 -162.75 127.625 C-156.57572638 123.95206644 -156.57572638 123.95206644 -153 118 C-153.49080398 116.39373245 -153.98358574 114.78804135 -154.48657227 113.18554688 C-155.55969314 108.61751164 -155.36919281 103.91898467 -155.375 99.25 C-155.41173828 97.71859375 -155.41173828 97.71859375 -155.44921875 96.15625 C-155.48182101 87.59272205 -153.90186017 79.32813521 -148.5 72.4375 C-145.63295138 69.6421276 -143.72905797 67.98282393 -139.640625 68.0234375 C-138.45726562 68.19746094 -138.45726562 68.19746094 -137.25 68.375 C-136.49944336 68.48537598 -135.74888672 68.59575195 -134.97558594 68.70947266 C-134.32364258 68.80534668 -133.67169922 68.9012207 -133 69 C-132.82476807 68.38471436 -132.64953613 67.76942871 -132.46899414 67.13549805 C-130.74650787 61.22427678 -128.75871708 55.51318797 -126.4375 49.8125 C-126.09380371 48.9666333 -125.75010742 48.1207666 -125.39599609 47.24926758 C-124.65626189 45.43983749 -123.91300745 43.63184314 -123.16650391 41.82519531 C-122.37685957 39.91272896 -121.59283708 37.99793334 -120.81396484 36.08105469 C-105.88851293 -0.52399304 -105.88851293 -0.52399304 -87.9074707 -8.8269043 C-60.71418525 -19.79875219 -25.26603629 -13.26616075 0 0 Z " fill="#B6B6B5" transform="translate(305,136)"/>
<path d="M0 0 C9.0821493 4.84001687 16.22858894 12.3597539 22.4921875 20.390625 C27.38717924 26.61803727 32.8355663 31.10685302 39.4921875 35.328125 C39.01562338 37.12048567 38.53585252 38.91199397 38.0546875 40.703125 C37.78785156 41.70085937 37.52101563 42.69859375 37.24609375 43.7265625 C36.4921875 46.328125 36.4921875 46.328125 35.4921875 48.328125 C36.77281235 50.0356248 38.10986307 51.70186096 39.4921875 53.328125 C40.1521875 53.328125 40.8121875 53.328125 41.4921875 53.328125 C41.2446875 52.35875 40.9971875 51.389375 40.7421875 50.390625 C40.19958663 46.87401624 40.96224516 44.76426323 42.4765625 41.57421875 C42.85006836 40.77556396 43.22357422 39.97690918 43.60839844 39.15405273 C43.90004883 38.55149658 44.19169922 37.94894043 44.4921875 37.328125 C50.6485528 37.22903778 56.804451 37.15655247 62.96142578 37.10839844 C65.05460703 37.08831841 67.14773242 37.0610486 69.24072266 37.02636719 C72.25437219 36.97769066 75.26727823 36.95511988 78.28125 36.9375 C79.21272858 36.91685486 80.14420715 36.89620972 81.10391235 36.87493896 C86.76356722 36.87299689 90.01541764 37.52029776 94.4921875 41.328125 C99.37890912 46.61106729 99.84858956 51.0522455 99.7734375 58.05078125 C99.14285171 65.39885728 97.68937231 73.65733072 93.125 79.59375 C89.73201385 84.08102581 87.97121641 89.07794841 86.0546875 94.328125 C85.66853271 95.37250732 85.28237793 96.41688965 84.88452148 97.49291992 C78.43756563 115.3638762 73.45815394 133.90255437 72.9296875 152.953125 C72.87007715 154.90377844 72.80650411 156.85431629 72.73828125 158.8046875 C72.70238892 160.0743335 72.70238892 160.0743335 72.66577148 161.36962891 C72.4921875 163.328125 72.4921875 163.328125 71.4921875 164.328125 C67.9921875 164.453125 67.9921875 164.453125 64.4921875 164.328125 C63.4921875 163.328125 63.4921875 163.328125 63.4296875 159.80078125 C63.4538797 157.58114651 63.49268481 155.3620048 63.53125 153.14257812 C63.68225815 149.10653265 63.68225815 149.10653265 62.4921875 145.328125 C63.05093498 142.40205269 63.67196672 139.53430886 64.3671875 136.640625 C68.5440844 119.5817196 68.5440844 119.5817196 63.4921875 103.328125 C61.22294476 100.54496552 58.88364305 99.47463584 55.5546875 98.203125 C54.70003906 97.87054688 53.84539062 97.53796875 52.96484375 97.1953125 C49.33973998 95.92394909 46.14305662 95.21288953 42.296875 95.15234375 C25.33507129 94.71464202 11.77116774 89.60710524 -0.5078125 77.328125 C-0.1778125 76.668125 0.1521875 76.008125 0.4921875 75.328125 C-0.4153125 75.039375 -1.3228125 74.750625 -2.2578125 74.453125 C-4.82984158 73.56280724 -7.12128016 72.61318087 -9.5078125 71.328125 C-8.00715987 66.65942794 -4.5820552 65.54959067 -0.5078125 63.328125 C-2.03148437 62.96460938 -2.03148437 62.96460938 -3.5859375 62.59375 C-24.58957049 57.50925279 -24.58957049 57.50925279 -32.5078125 53.328125 C-32.5078125 52.668125 -32.5078125 52.008125 -32.5078125 51.328125 C-26.7578125 52.203125 -26.7578125 52.203125 -24.5078125 53.328125 C-24.6109375 52.1525 -24.7140625 50.976875 -24.8203125 49.765625 C-24.8203125 44.78510654 -22.91729166 41.84007485 -19.5078125 38.328125 C-13.70460532 34.08187585 -7.5266936 33.5787407 -0.5078125 34.328125 C5.40399244 36.12113343 9.06047517 39.28148922 12.4921875 44.328125 C14.5787064 49.12711847 14.81341313 52.89793004 15.4921875 58.328125 C20.7721875 55.358125 26.0521875 52.388125 31.4921875 49.328125 C28.8521875 48.668125 26.2121875 48.008125 23.4921875 47.328125 C17.44998892 44.05639495 13.05419132 38.82984823 8.6171875 33.703125 C3.52932164 28.03322206 -0.80728255 23.89853719 -8.5078125 22.328125 C-9.31605469 22.14378906 -10.12429687 21.95945313 -10.95703125 21.76953125 C-19.80882568 20.23775059 -29.55008931 20.74790843 -37.3203125 25.515625 C-40.5078125 27.328125 -40.5078125 27.328125 -42.9453125 27.078125 C-43.4609375 26.830625 -43.9765625 26.583125 -44.5078125 26.328125 C-45.92263247 21.79237862 -45.04907999 19.53641279 -42.8828125 15.390625 C-33.91397785 -1.3950839 -18.1337839 -7.64094158 0 0 Z " fill="#030302" transform="translate(243.5078125,156.671875)"/>
<path d="M0 0 C9.0821493 4.84001687 16.22858894 12.3597539 22.4921875 20.390625 C27.38717924 26.61803727 32.8355663 31.10685302 39.4921875 35.328125 C39.01562338 37.12048567 38.53585252 38.91199397 38.0546875 40.703125 C37.78785156 41.70085937 37.52101563 42.69859375 37.24609375 43.7265625 C36.4921875 46.328125 36.4921875 46.328125 35.4921875 48.328125 C39.1432102 54.04276923 44.32595696 56.39601918 50.796875 57.84375 C51.54195313 57.98296875 52.28703125 58.1221875 53.0546875 58.265625 C58.61406907 59.40277123 63.41538265 61.54345146 66.87890625 66.1875 C69.28266868 70.53957514 70.26289812 74.31850598 69.4921875 79.328125 C67.4921875 81.765625 67.4921875 81.765625 65.4921875 83.328125 C64.8321875 82.998125 64.1721875 82.668125 63.4921875 82.328125 C63.9871875 80.843125 63.9871875 80.843125 64.4921875 79.328125 C65.1122663 73.23068349 64.21422091 70.01268677 60.87890625 64.89453125 C59.47361183 63.04376068 59.47361183 63.04376068 56.4921875 62.328125 C56.894375 63.6275 56.894375 63.6275 57.3046875 64.953125 C57.51058338 68.65925087 57.31372162 69.03797239 55.0546875 71.703125 C54.2090625 72.569375 53.3634375 73.435625 52.4921875 74.328125 C53.5234375 74.84375 54.5546875 75.359375 55.6171875 75.890625 C59.24040819 77.9432964 61.49048957 80.41975259 64.0703125 83.64453125 C65.96020706 85.88229102 68.13940698 87.59813932 70.4921875 89.328125 C69.9971875 90.813125 69.9971875 90.813125 69.4921875 92.328125 C68.94691406 91.83183594 68.40164063 91.33554688 67.83984375 90.82421875 C62.56693865 86.0740974 57.15163429 81.60950318 51.4921875 77.328125 C51.1621875 77.988125 50.8321875 78.648125 50.4921875 79.328125 C46.96702546 77.91647458 45.71259769 76.52011678 44.01953125 73.15234375 C43.38241211 71.91000977 43.38241211 71.91000977 42.73242188 70.64257812 C42.30251953 69.77568359 41.87261719 68.90878906 41.4296875 68.015625 C40.56497103 66.31060457 39.69911694 64.60616054 38.83203125 62.90234375 C38.42968262 62.10618652 38.02733398 61.3100293 37.61279297 60.48974609 C36.34094223 58.03637649 34.96323266 55.66732797 33.4921875 53.328125 C30.41154027 54.40016668 27.73579886 55.73718943 25.00390625 57.4921875 C24.37935547 57.89179688 23.75480469 58.29140625 23.11132812 58.703125 C21.82821826 59.53344887 20.55203343 60.37457758 19.28320312 61.2265625 C14.37891249 64.32506817 11.25454964 64.57499736 5.4921875 64.328125 C1.99492229 65.96264593 1.99492229 65.96264593 -0.5078125 68.328125 C-0.5078125 69.318125 -0.5078125 70.308125 -0.5078125 71.328125 C1.6776192 72.65556453 1.6776192 72.65556453 5.1796875 71.828125 C8.21816899 71.76757555 9.16761292 72.01751777 11.3984375 74.15234375 C13.16819579 76.50037833 14.83148838 78.90220178 16.4921875 81.328125 C20.53574797 85.74783063 22.94964056 88.1465145 28.9921875 88.578125 C32.33729902 88.33918846 33.6325008 87.80409233 36.4921875 86.328125 C40.51083152 85.81510661 41.99645167 85.98326529 45.3671875 88.328125 C46.0684375 88.988125 46.7696875 89.648125 47.4921875 90.328125 C48.1521875 88.678125 48.8121875 87.028125 49.4921875 85.328125 C49.8221875 85.328125 50.1521875 85.328125 50.4921875 85.328125 C50.71950866 88.13175263 50.83300622 89.78999017 49.3046875 92.203125 C47.4921875 93.328125 47.4921875 93.328125 45.0546875 93.140625 C42.4921875 92.328125 42.4921875 92.328125 40.5546875 91.203125 C37.61689282 89.95678786 35.61322801 90.73924943 32.4921875 91.328125 C24.46682174 92.4723666 19.09891397 89.75763479 12.4921875 85.328125 C9.99686713 83.36306021 7.56396173 81.33589086 5.12890625 79.296875 C0.62434978 75.93347283 -4.40485089 73.64287047 -9.5078125 71.328125 C-8.00946022 66.66658458 -4.62317659 65.46201749 -0.5078125 63.328125 C-2.03148437 62.96460938 -2.03148437 62.96460938 -3.5859375 62.59375 C-24.58957049 57.50925279 -24.58957049 57.50925279 -32.5078125 53.328125 C-32.5078125 52.668125 -32.5078125 52.008125 -32.5078125 51.328125 C-26.7578125 52.203125 -26.7578125 52.203125 -24.5078125 53.328125 C-24.6109375 52.1525 -24.7140625 50.976875 -24.8203125 49.765625 C-24.8203125 44.78510654 -22.91729166 41.84007485 -19.5078125 38.328125 C-13.70460532 34.08187585 -7.5266936 33.5787407 -0.5078125 34.328125 C5.40399244 36.12113343 9.06047517 39.28148922 12.4921875 44.328125 C14.5787064 49.12711847 14.81341313 52.89793004 15.4921875 58.328125 C20.7721875 55.358125 26.0521875 52.388125 31.4921875 49.328125 C28.8521875 48.668125 26.2121875 48.008125 23.4921875 47.328125 C17.44998892 44.05639495 13.05419132 38.82984823 8.6171875 33.703125 C3.52932164 28.03322206 -0.80728255 23.89853719 -8.5078125 22.328125 C-9.31605469 22.14378906 -10.12429687 21.95945313 -10.95703125 21.76953125 C-19.80882568 20.23775059 -29.55008931 20.74790843 -37.3203125 25.515625 C-40.5078125 27.328125 -40.5078125 27.328125 -42.9453125 27.078125 C-43.4609375 26.830625 -43.9765625 26.583125 -44.5078125 26.328125 C-45.92263247 21.79237862 -45.04907999 19.53641279 -42.8828125 15.390625 C-33.91397785 -1.3950839 -18.1337839 -7.64094158 0 0 Z " fill="#B5B4B4" transform="translate(243.5078125,156.671875)"/>
<path d="M0 0 C6.1563653 -0.09908722 12.3122635 -0.17157253 18.46923828 -0.21972656 C20.56241953 -0.23980659 22.65554492 -0.2670764 24.74853516 -0.30175781 C27.76218469 -0.35043434 30.77509073 -0.37300512 33.7890625 -0.390625 C34.72054108 -0.41127014 35.65201965 -0.43191528 36.61172485 -0.45318604 C42.27137972 -0.45512811 45.52323014 0.19217276 50 4 C54.88672162 9.28294229 55.35640206 13.7241205 55.28125 20.72265625 C54.65066421 28.07073228 53.19718481 36.32920572 48.6328125 42.265625 C45.23982635 46.75290081 43.47902891 51.74982341 41.5625 57 C41.17634521 58.04438232 40.79019043 59.08876465 40.39233398 60.16479492 C33.94537813 78.0357512 28.96596644 96.57442937 28.4375 115.625 C28.37788965 117.57565344 28.31431661 119.52619129 28.24609375 121.4765625 C28.22216553 122.32299316 28.1982373 123.16942383 28.17358398 124.04150391 C28 126 28 126 27 127 C23.5 127.125 23.5 127.125 20 127 C19 126 19 126 18.87109375 122.546875 C19.30956457 94.60825514 31.34939599 66.88591516 41.34594727 41.1862793 C42.88024426 36.05763817 42.74753511 31.06671471 40.9375 26.0625 C36.6750838 21.52508921 31.89240796 20.8197957 25.91015625 20.59375 C23.6278315 20.54886912 21.34519515 20.51798409 19.0625 20.5 C4.76597989 20.38698403 4.76597989 20.38698403 -2 17 C-4.265672 13.601492 -4.04637067 12.17341876 -3.58203125 8.23046875 C-2.80683726 5.25975888 -1.39482736 2.72613715 0 0 Z " fill="#B4B3B3" transform="translate(288,194)"/>
<path d="M0 0 C4.73820614 3.41910644 7.38478949 7.56097185 8.75390625 13.265625 C9.1321179 15.92765319 9.43589445 18.59542246 9.75390625 21.265625 C10.88570313 20.6159375 12.0175 19.96625 13.18359375 19.296875 C14.66523701 18.45290099 16.14701483 17.60916319 17.62890625 16.765625 C18.37527344 16.33636719 19.12164062 15.90710938 19.890625 15.46484375 C20.60605469 15.05878906 21.32148438 14.65273437 22.05859375 14.234375 C22.71843262 13.85732422 23.37827148 13.48027344 24.05810547 13.09179688 C25.75390625 12.265625 25.75390625 12.265625 27.75390625 12.265625 C28.08390625 11.605625 28.41390625 10.945625 28.75390625 10.265625 C29.71296875 11.626875 29.71296875 11.626875 30.69140625 13.015625 C34.98380915 18.14232592 40.91010369 19.99710258 47.31640625 21.203125 C52.87578782 22.34027123 57.6771014 24.48095146 61.140625 29.125 C63.54438743 33.47707514 64.52461687 37.25600598 63.75390625 42.265625 C61.75390625 44.703125 61.75390625 44.703125 59.75390625 46.265625 C59.09390625 45.935625 58.43390625 45.605625 57.75390625 45.265625 C58.08390625 44.275625 58.41390625 43.285625 58.75390625 42.265625 C59.37398505 36.16818349 58.47593966 32.95018677 55.140625 27.83203125 C53.73533058 25.98126068 53.73533058 25.98126068 50.75390625 25.265625 C51.15609375 26.565 51.15609375 26.565 51.56640625 27.890625 C51.77230213 31.59675087 51.57544037 31.97547239 49.31640625 34.640625 C48.47078125 35.506875 47.62515625 36.373125 46.75390625 37.265625 C47.78515625 37.78125 48.81640625 38.296875 49.87890625 38.828125 C53.50212694 40.8807964 55.75220832 43.35725259 58.33203125 46.58203125 C60.22192581 48.81979102 62.40112573 50.53563932 64.75390625 52.265625 C64.42390625 53.255625 64.09390625 54.245625 63.75390625 55.265625 C63.20863281 54.76933594 62.66335938 54.27304688 62.1015625 53.76171875 C56.8286574 49.0115974 51.41335304 44.54700318 45.75390625 40.265625 C45.25890625 41.255625 45.25890625 41.255625 44.75390625 42.265625 C41.22874421 40.85397458 39.97431644 39.45761678 38.28125 36.08984375 C37.85650391 35.26162109 37.43175781 34.43339844 36.99414062 33.58007812 C36.56423828 32.71318359 36.13433594 31.84628906 35.69140625 30.953125 C34.82668978 29.24810457 33.96083569 27.54366054 33.09375 25.83984375 C32.69140137 25.04368652 32.28905273 24.2475293 31.87451172 23.42724609 C30.60266098 20.97387649 29.22495141 18.60482797 27.75390625 16.265625 C24.67325902 17.33766668 21.99751761 18.67468943 19.265625 20.4296875 C18.64107422 20.82929688 18.01652344 21.22890625 17.37304688 21.640625 C16.08993701 22.47094887 14.81375218 23.31207758 13.54492188 24.1640625 C8.64063124 27.26256817 5.51626839 27.51249736 -0.24609375 27.265625 C-3.74335896 28.90014593 -3.74335896 28.90014593 -6.24609375 31.265625 C-6.24609375 32.255625 -6.24609375 33.245625 -6.24609375 34.265625 C-4.06066205 35.59306453 -4.06066205 35.59306453 -0.55859375 34.765625 C2.47988774 34.70507555 3.42933167 34.95501777 5.66015625 37.08984375 C7.42991454 39.43787833 9.09320713 41.83970178 10.75390625 44.265625 C14.79746672 48.68533063 17.21135931 51.0840145 23.25390625 51.515625 C26.59901777 51.27668846 27.89421955 50.74159233 30.75390625 49.265625 C34.77255027 48.75260661 36.25817042 48.92076529 39.62890625 51.265625 C40.33015625 51.925625 41.03140625 52.585625 41.75390625 53.265625 C42.41390625 51.615625 43.07390625 49.965625 43.75390625 48.265625 C44.08390625 48.265625 44.41390625 48.265625 44.75390625 48.265625 C44.98122741 51.06925263 45.09472497 52.72749017 43.56640625 55.140625 C41.75390625 56.265625 41.75390625 56.265625 39.31640625 56.078125 C36.75390625 55.265625 36.75390625 55.265625 34.81640625 54.140625 C31.87861157 52.89428786 29.87494676 53.67674943 26.75390625 54.265625 C18.72854049 55.4098666 13.36063272 52.69513479 6.75390625 48.265625 C4.25858588 46.30056021 1.82568048 44.27339086 -0.609375 42.234375 C-5.11393147 38.87097283 -10.14313214 36.58037047 -15.24609375 34.265625 C-13.74774147 29.60408458 -10.36145784 28.39951749 -6.24609375 26.265625 C-7.261875 26.02328125 -8.27765625 25.7809375 -9.32421875 25.53125 C-30.32785174 20.44675279 -30.32785174 20.44675279 -38.24609375 16.265625 C-38.24609375 15.605625 -38.24609375 14.945625 -38.24609375 14.265625 C-32.49609375 15.140625 -32.49609375 15.140625 -30.24609375 16.265625 C-30.34921875 15.09 -30.45234375 13.914375 -30.55859375 12.703125 C-30.55859375 7.72260654 -28.65557291 4.77757485 -25.24609375 1.265625 C-17.83942552 -4.15388834 -7.94346605 -4.55746335 0 0 Z " fill="#ABAAAA" transform="translate(249.24609375,193.734375)"/>
<path d="M0 0 C2.03115505 1.55194314 3.38556182 2.99586984 5 5 C4.67 5.66 4.34 6.32 4 7 C3.01 6.01 2.02 5.02 1 4 C1.66 5.98 2.32 7.96 3 10 C4.98 10 6.96 10 9 10 C9 8.35 9 6.7 9 5 C11.28748718 4.22052219 12.61326482 3.8885157 14.96484375 4.56640625 C19.88112238 7.04888358 22.98458228 9.33980898 26 14 C26.1546875 15.7325 26.1546875 15.7325 26.3125 17.5 C27.22321073 22.13634554 29.15327 23.04813558 32.93359375 25.59765625 C37.30096762 28.56152623 40.73629475 32.22106669 43 37 C42.67 37.99 42.34 38.98 42 40 C37.55406087 38.7543705 34.9148103 37.24562635 31.5 34.1875 C25.17373668 29.35080006 18.43198007 28.09624431 10.70507812 26.63549805 C5.76633547 25.69760351 2.29665809 24.68636527 -2 22 C-4.89413303 21.6405114 -4.89413303 21.6405114 -7.8125 21.8125 C-8.78832031 21.83957031 -9.76414063 21.86664063 -10.76953125 21.89453125 C-11.50558594 21.92933594 -12.24164063 21.96414063 -13 22 C-13.33 21.34 -13.66 20.68 -14 20 C-14.99 20.66 -15.98 21.32 -17 22 C-19.48046875 22.1953125 -19.48046875 22.1953125 -22.1875 22.125 C-23.08855469 22.10695313 -23.98960937 22.08890625 -24.91796875 22.0703125 C-25.60503906 22.04710937 -26.29210937 22.02390625 -27 22 C-26.42365861 17.24518354 -24.44931479 14.02951788 -22 10 C-20.35 10 -18.7 10 -17 10 C-17 9.34 -17 8.68 -17 8 C-17.68707031 7.97421875 -18.37414062 7.9484375 -19.08203125 7.921875 C-19.98308594 7.86515625 -20.88414062 7.8084375 -21.8125 7.75 C-23.15248047 7.68039062 -23.15248047 7.68039062 -24.51953125 7.609375 C-27 7 -27 7 -28.82421875 4.953125 C-29.21222656 4.30859375 -29.60023438 3.6640625 -30 3 C-28.9967047 -0.23284041 -27.97398572 -1.015175 -25 -2.75 C-16.46143048 -5.94314273 -7.934644 -3.99283533 0 0 Z " fill="#9C9B9B" transform="translate(240,280)"/>
<path d="M0 0 C4.00846156 3.71515949 6.55736698 7.05733834 7.4375 12.5 C7.60484528 17.68770358 7.60484528 17.68770358 5.5625 20.375 C0.18409623 23.06420189 -6.55697131 20.90684407 -12.125 19.5625 C-12.87072266 19.39685547 -13.61644531 19.23121094 -14.38476562 19.06054688 C-18.28709472 18.13805159 -21.56746906 17.35627245 -24.4375 14.375 C-25.07086199 10.17897685 -24.71388034 7.92776068 -22.8125 4.125 C-16.92040908 -2.69742106 -8.03756717 -3.79957721 0 0 Z " fill="#030303" transform="translate(246.4375,195.625)"/>
<path d="M0 0 C2.03115505 1.55194314 3.38556182 2.99586984 5 5 C4.67 5.66 4.34 6.32 4 7 C3.01 6.01 2.02 5.02 1 4 C1.66 5.98 2.32 7.96 3 10 C4.98 10 6.96 10 9 10 C9 8.35 9 6.7 9 5 C11.28748718 4.22052219 12.61326482 3.8885157 14.96484375 4.56640625 C19.87734372 7.04697554 22.94771656 9.37532812 26 14 C26.8125 17.375 26.8125 17.375 27 20 C26.01 20.495 26.01 20.495 25 21 C24.525625 20.236875 24.05125 19.47375 23.5625 18.6875 C17.62346956 12.45876076 8.64697008 12.47104689 0.5 12 C-6.06095975 11.6206541 -11.8906648 11.03792875 -18.05712891 8.66381836 C-20.27499831 7.82825442 -20.27499831 7.82825442 -23.875 7.5625 C-27 7 -27 7 -28.9375 4.9375 C-29.288125 4.298125 -29.63875 3.65875 -30 3 C-28.9967047 -0.23284041 -27.97398572 -1.015175 -25 -2.75 C-16.46143048 -5.94314273 -7.934644 -3.99283533 0 0 Z " fill="#060606" transform="translate(240,280)"/>
<path d="M0 0 C19.58288495 1.35054379 19.58288495 1.35054379 25.35546875 7.515625 C27.51569729 10.77905814 28.17361292 12.56085552 28.25 16.4375 C28.27578125 17.21996094 28.3015625 18.00242187 28.328125 18.80859375 C27.92823089 21.47931509 27.05300878 22.31977439 25 24 C23.79730469 23.08927734 23.79730469 23.08927734 22.5703125 22.16015625 C18.61975893 19.52606724 14.44550267 18.54470986 9.875 17.4375 C0.32471429 15.10007143 0.32471429 15.10007143 -3 12 C-2.69106068 10.3743193 -2.3777305 8.74947252 -2.0625 7.125 C-1.88847656 6.22007812 -1.71445312 5.31515625 -1.53515625 4.3828125 C-1 2 -1 2 0 0 Z " fill="#020202" transform="translate(264,268)"/>
<path d="M0 0 C5.69139902 1.09698167 10.74567937 2.54053077 16 5 C15.48964169 9.3890815 14.47785723 12.33708062 12 16 C6.04492601 15.6083965 1.37180176 14.62875405 -4 12 C-3.5317879 7.22423661 -2.75668002 3.95523655 0 0 Z " fill="#020202" transform="translate(245,262)"/>
<path d="M0 0 C10.71154047 -0.55874448 20.18852677 4.80279557 28.42578125 11.2890625 C30.20323278 13.22088327 30.80266006 14.38657919 31 17 C30.34 17.66 29.68 18.32 29 19 C18.59939356 18.42708524 8.48691113 8.68642378 1 2 C0.67 1.34 0.34 0.68 0 0 Z " fill="#AFAFAE" transform="translate(333,310)"/>
<path d="M0 0 C4.23169259 0.37615045 6.8083482 1.17661571 10 4 C9.74337755 5.44010481 9.46909179 6.8770687 9.1875 8.3125 C9.03667969 9.11300781 8.88585937 9.91351563 8.73046875 10.73828125 C7.90335455 13.29923912 7.15340944 14.40280295 5 16 C-1.13846154 16.43076923 -1.13846154 16.43076923 -4 15 C-4.29268781 9.34136895 -4.03522952 5.97777642 -1 1 C-0.67 0.67 -0.34 0.34 0 0 Z " fill="#030303" transform="translate(231,256)"/>
<path d="M0 0 C0 0.33 0 0.66 0 1 C-0.99580078 1.16435547 -0.99580078 1.16435547 -2.01171875 1.33203125 C-10.14643065 2.64963639 -10.14643065 2.64963639 -16.3125 7.75 C-17.29272882 10.9580216 -17.3081565 13.67190978 -17 17 C-13.69001895 19.20665404 -11.17978564 19.78262095 -7.3125 20.625 C-6.13300781 20.88539063 -4.95351562 21.14578125 -3.73828125 21.4140625 C-2.83464844 21.60742188 -1.93101562 21.80078125 -1 22 C-1.33 22.99 -1.66 23.98 -2 25 C-21.00455581 21.14578588 -21.00455581 21.14578588 -29 17 C-29 16.34 -29 15.68 -29 15 C-23.25 15.875 -23.25 15.875 -21 17 C-21.103125 15.824375 -21.20625 14.64875 -21.3125 13.4375 C-21.3125 8.41968505 -19.37870881 5.56693772 -16 2 C-11.34387442 -2.38223584 -5.86223576 -0.85212884 0 0 Z " fill="#A3A2A2" transform="translate(240,193)"/>
<path d="M0 0 C-0.33 1.32 -0.66 2.64 -1 4 C-8.8231062 6.58716898 -15.7763806 7.38750039 -24 7 C-24 6.01 -24 5.02 -24 4 C-22.58671871 3.18162558 -21.16921654 2.37053781 -19.75 1.5625 C-18.56664062 0.88380859 -18.56664062 0.88380859 -17.359375 0.19140625 C-11.87343312 -2.57881275 -5.38524164 -3.44655465 0 0 Z " fill="#AFAFAE" transform="translate(356,278)"/>
<path d="M0 0 C5.54518774 -0.16803599 9.78757146 -0.13843222 15 2 C15.36923077 7.53846154 15.36923077 7.53846154 13.5 9.875 C13.005 10.24625 12.51 10.6175 12 11 C11.45859375 10.67257812 10.9171875 10.34515625 10.359375 10.0078125 C7.49280933 8.78335233 5.3547013 8.80107854 2.25 8.875 C1.26515625 8.89304687 0.2803125 8.91109375 -0.734375 8.9296875 C-1.48203125 8.95289063 -2.2296875 8.97609375 -3 9 C-2.01 6.03 -1.02 3.06 0 0 Z " fill="#040404" transform="translate(230,293)"/>
<path d="M0 0 C10.45853659 0.7804878 10.45853659 0.7804878 14 4 C15.3125 7.6875 15.3125 7.6875 16 11 C12.81619067 12.59190467 9.71923676 11.28749598 6.375 10.5625 C5.66859375 10.41490234 4.9621875 10.26730469 4.234375 10.11523438 C2.48831251 9.74950507 0.74398116 9.37552879 -1 9 C-0.67 6.03 -0.34 3.06 0 0 Z " fill="#050504" transform="translate(248,295)"/>
<path d="M0 0 C7.75 -0.125 7.75 -0.125 10 1 C9.52262383 5.20091029 9.00225372 7.94507517 6 11 C3.51953125 11.390625 3.51953125 11.390625 0.8125 11.25 C-0.08855469 11.21390625 -0.98960937 11.1778125 -1.91796875 11.140625 C-2.60503906 11.09421875 -3.29210937 11.0478125 -4 11 C-3.39301257 6.87248551 -1.96189209 3.6678852 0 0 Z " fill="#020202" transform="translate(217,291)"/>
<path d="M0 0 C-0.14133499 1.77119803 -0.28823208 3.54195287 -0.4375 5.3125 C-0.51871094 6.29863281 -0.59992188 7.28476562 -0.68359375 8.30078125 C-1 11 -1 11 -2 14 C-3.65 14 -5.3 14 -7 14 C-7 14.66 -7 15.32 -7 16 C-8.98 16 -10.96 16 -13 16 C-13 15.34 -13 14.68 -13 14 C-12.01 14 -11.02 14 -10 14 C-10.33 13.01 -10.66 12.02 -11 11 C-9.63671875 8.5546875 -9.63671875 8.5546875 -7.6875 5.875 C-6.73423828 4.54082031 -6.73423828 4.54082031 -5.76171875 3.1796875 C-3.83728271 0.79867794 -3.06328786 0 0 0 Z " fill="#111111" transform="translate(217,257)"/>
<path d="M0 0 C3 0.5 3 0.5 4.875 2.5 C5.431875 3.49 5.431875 3.49 6 4.5 C4.9275 4.665 3.855 4.83 2.75 5 C0.33920809 5.68810052 -0.75042027 6.18470253 -2.3203125 8.16796875 C-4.60285182 12.53860885 -5.59245766 16.60949192 -6 21.5 C-6.99 21.5 -7.98 21.5 -9 21.5 C-9.46982579 13.9827873 -8.16605669 8.62582227 -4.6875 2 C-3 0.5 -3 0.5 0 0 Z " fill="#060606" transform="translate(161,209.5)"/>
<path d="M0 0 C7.9526076 2.0828258 11.96646755 6.45493677 16.21484375 13.1328125 C17 15 17 15 16 18 C3.25785657 8.49395649 3.25785657 8.49395649 0 4 C0 2.68 0 1.36 0 0 Z " fill="#0A0A0A" transform="translate(266,302)"/>
<path d="M0 0 C1.32 0 2.64 0 4 0 C4 4.95 4 9.9 4 15 C1.69 15.33 -0.62 15.66 -3 16 C-2.57910004 10.39538469 -2.08386889 5.27913453 0 0 Z " fill="#090909" transform="translate(220,256)"/>
<path d="M0 0 C2 2 2 2 2.3125 5 C2.1578125 6.485 2.1578125 6.485 2 8 C-1 10 -1 10 -3.5 9.9375 C-6 9 -6 9 -7.9375 6.6875 C-9 4 -9 4 -8.3125 1.75 C-5.78747678 -1.61669763 -3.78910803 -1.04200471 0 0 Z " fill="#9B9B9A" transform="translate(247,201)"/>
<path d="M0 0 C0.33 0 0.66 0 1 0 C1.22732116 2.80362763 1.34081872 4.46186517 -0.1875 6.875 C-2 8 -2 8 -4.4375 7.8125 C-7 7 -7 7 -8.9375 5.875 C-11.87529468 4.62866286 -13.87895949 5.41112443 -17 6 C-21.22852691 6.20273759 -24.95978007 6.34673998 -29 5 C-29 4.01 -29 3.02 -29 2 C-28.319375 2.165 -27.63875 2.33 -26.9375 2.5 C-21.6414949 3.40144768 -17.76002019 3.45678461 -13 1 C-8.98135598 0.48698161 -7.49573583 0.65514029 -4.125 3 C-3.42375 3.66 -2.7225 4.32 -2 5 C-1.34 3.35 -0.68 1.7 0 0 Z " fill="#A5A4A4" transform="translate(293,242)"/>
<path d="M0 0 C0.74507812 0.30679687 1.49015625 0.61359375 2.2578125 0.9296875 C7.42097661 2.40641711 12.53442588 2.72379924 17.875 3.125 C18.94492188 3.21136719 20.01484375 3.29773438 21.1171875 3.38671875 C23.74433699 3.59782898 26.37183211 3.80204403 29 4 C29 4.33 29 4.66 29 5 C21.46818582 5.75667376 14.49719609 6.14364008 7 5 C6.34 7.31 5.68 9.62 5 12 C4.01 12 3.02 12 2 12 C2.66 9.36 3.32 6.72 4 4 C1.03 3.67 -1.94 3.34 -5 3 C-5 2.67 -5 2.34 -5 2 C-3.35 2 -1.7 2 0 2 C0 1.34 0 0.68 0 0 Z " fill="#929292" transform="translate(223,288)"/>
<path d="M0 0 C1.95803507 -0.05389087 3.91648909 -0.09274217 5.875 -0.125 C7.51082031 -0.15980469 7.51082031 -0.15980469 9.1796875 -0.1953125 C12 0 12 0 14 2 C11.03 2 8.06 2 5 2 C4.67 4.97 4.34 7.94 4 11 C6.97 11.33 9.94 11.66 13 12 C13 12.33 13 12.66 13 13 C11.783125 13.020625 10.56625 13.04125 9.3125 13.0625 C8.62800781 13.07410156 7.94351563 13.08570313 7.23828125 13.09765625 C5 13 5 13 0 12 C0.66 8.7 1.32 5.4 2 2 C1.34 2 0.68 2 0 2 C0 1.34 0 0.68 0 0 Z " fill="#A7A6A6" transform="translate(243,293)"/>
<path d="M0 0 C3.95732891 1.36362666 6.64310393 3.16130062 9.8125 5.875 C16.22567523 11.11781832 21.69423522 14.30785293 30 15 C30.33 15.99 30.66 16.98 31 18 C19.77280299 17.57633219 11.41090412 10.8786206 3 4 C1.67137876 2.99374786 0.33942122 1.99183092 -1 1 C-0.67 0.67 -0.34 0.34 0 0 Z " fill="#121212" transform="translate(244,233)"/>
<path d="M0 0 C3.82326474 0 5.9810671 0.05861802 8.84765625 2.70703125 C10.0377312 4.11681234 11.20706555 5.54435216 12.35546875 6.98828125 C14.30981081 9.37898472 16.50832087 11.18786972 19 13 C18.67 13.99 18.34 14.98 18 16 C17.18208984 15.25556641 17.18208984 15.25556641 16.34765625 14.49609375 C11.60062398 10.21970741 6.76315583 6.18294942 1.65234375 2.34765625 C1.10707031 1.90292969 0.56179688 1.45820313 0 1 C0 0.67 0 0.34 0 0 Z " fill="#9D9D9C" transform="translate(295,233)"/>
<path d="M0 0 C0.66 0.33 1.32 0.66 2 1 C1.67 1.33 1.34 1.66 1 2 C1.99 2.66 2.98 3.32 4 4 C3.071875 4.20625 2.14375 4.4125 1.1875 4.625 C-2.12177894 5.72810191 -2.12177894 5.72810191 -3.75 8.4375 C-5.42399724 13.20839212 -6.24536638 18.01054005 -7 23 C-9.27661245 19.58508132 -9.19937002 19.13384805 -8.4375 15.3125 C-7.08311523 9.26645559 -4.37792712 4.37792712 0 0 Z " fill="#A0A09F" transform="translate(159,206)"/>
<path d="M0 0 C3.41526554 0.93919802 5.79057286 2.20914466 8 5 C8 5.66 8 6.32 8 7 C8.66 7.33 9.32 7.66 10 8 C8.02 8.99 8.02 8.99 6 10 C5.814375 9.236875 5.62875 8.47375 5.4375 7.6875 C3.36554378 3.81384272 1.07713462 3.43454737 -3 2 C-2.01 1.34 -1.02 0.68 0 0 Z " fill="#989897" transform="translate(257,294)"/>
<path d="M0 0 C4.95 1.98 4.95 1.98 10 4 C9.01 5.485 9.01 5.485 8 7 C5.25851328 6.62952882 3.41406801 6.31412056 1.1875 4.625 C0 3 0 3 0 0 Z " fill="#676766" transform="translate(282,210)"/>
<path d="M0 0 C2.99220268 1.36370299 5.29026529 2.94908083 7.75 5.125 C8.67039062 5.93324219 8.67039062 5.93324219 9.609375 6.7578125 C10.06828125 7.16773438 10.5271875 7.57765625 11 8 C10.34 8.66 9.68 9.32 9 10 C7.49147143 8.90751403 5.99337169 7.80061501 4.5 6.6875 C3.24703125 5.76517578 3.24703125 5.76517578 1.96875 4.82421875 C1.3190625 4.22222656 0.669375 3.62023437 0 3 C0 2.01 0 1.02 0 0 Z " fill="#A6A6A6" transform="translate(268,309)"/>
<path d="M0 0 C0.66 0 1.32 0 2 0 C2.67154933 1.28913487 3.33708859 2.58140204 4 3.875 C4.37125 4.59429687 4.7425 5.31359375 5.125 6.0546875 C6 8 6 8 6 10 C2.83884224 8.63016497 2.0072908 8.0109362 0 5 C-0.125 2.3125 -0.125 2.3125 0 0 Z " fill="#1D1D1D" transform="translate(277,294)"/>
<path d="M0 0 C3.3 0.66 6.6 1.32 10 2 C9.67 2.99 9.34 3.98 9 5 C5.37 4.34 1.74 3.68 -2 3 C-1.34 2.01 -0.68 1.02 0 0 Z " fill="#979797" transform="translate(229,213)"/>
<path d="M0 0 C0.66 0 1.32 0 2 0 C2 0.66 2 1.32 2 2 C2.66 2 3.32 2 4 2 C3.34 4.97 2.68 7.94 2 11 C1.01 10.34 0.02 9.68 -1 9 C-0.67 6.03 -0.34 3.06 0 0 Z " fill="#A1A0A0" transform="translate(260,266)"/>
<path d="M0 0 C0.66 0 1.32 0 2 0 C1.4140625 6.15234375 1.4140625 6.15234375 1 8 C0.01 8.495 0.01 8.495 -1 9 C-1.09765625 2.84765625 -1.09765625 2.84765625 -1 1 C-0.67 0.67 -0.34 0.34 0 0 Z " fill="#959594" transform="translate(217,259)"/>
<path d="M0 0 C0.33 0.66 0.66 1.32 1 2 C-0.4375 4.625 -0.4375 4.625 -2 7 C-2.99 6.67 -3.98 6.34 -5 6 C-3.35 4.02 -1.7 2.04 0 0 Z " fill="#191919" transform="translate(212,293)"/>
</svg>
